<svg width="192" height="192" viewBox="0 0 192 192" fill="none" xmlns="http://www.w3.org/2000/svg">
<path d="M50.9398 74.3788C50.5027 76.291 88.0792 109.682 88.0792 109.682L159.591 1.12398" fill="#E3E3E3"/>
<path d="M95.4356 115.686L95.3018 13.9489L161.514 40.3243L161.987 109.682" fill="white"/>
<path d="M30.3184 109.468L30.0137 40.9208L78.7664 13.949L78.9086 115.687" fill="white"/>
<path d="M185.83 176.203C185.31 176.603 178.083 181.129 171.325 179.557C167.969 178.777 161.908 175.187 161.908 167.442C161.908 162.453 165.861 153.598 175.629 153.598C181.406 153.598 187.909 157.778 186.052 166.684C185.924 167.299 185.49 167.82 184.808 167.762C182.085 167.535 175.644 167.609 172.189 167.609C172.737 166.81 173.227 165.956 173.74 165.124C174.172 164.419 174.969 163.967 175.85 163.911L180.293 163.891C181.008 163.888 180.556 158.402 174.747 158.609C171.47 158.724 166.871 162.128 167.306 167.643C167.62 171.62 169.004 173.275 172.464 174.843C176.146 176.51 180.805 174.71 184.681 172.688" fill="#E3E3E3"/>
<path d="M143.332 157.246H139.155V153.223L142.328 152.51C142.851 152.393 143.231 151.94 143.255 151.406L143.508 145.758L150.214 143.613L150.189 167.67C150.189 167.67 150.643 174.588 153.245 174.588C157.119 174.588 156.724 174.485 157.864 174.223C158.18 174.15 158.499 174.335 158.597 174.643L159.62 177.87C159.78 178.374 159.458 178.902 158.936 178.988C156.945 179.315 152.487 179.981 150.744 179.702C148.364 179.319 143.508 176.626 143.508 168.534" fill="#E3E3E3"/>
<path d="M150.86 154.021C150.86 154.021 151.328 158.267 154.554 158.846C155.577 159.029 158.451 158.932 158.451 158.932L158.393 154.021" fill="white"/>
<path d="M87.0922 186.161L86.3102 190.47C93.1705 192.4 99.2839 192.957 105.061 189.425C107.251 188.086 108.6 185.547 109.239 184.06C109.535 183.371 109.564 180.73 109.564 180.73C109.553 177.026 109.605 157.09 109.616 153.003C109.617 152.577 109.314 152.21 108.895 152.133C104.214 151.268 101.119 151.261 97.4919 151.114C90.1085 150.813 84.32 158.166 84.7157 165.654C85.6911 184.124 100.583 177.81 100.583 177.81L98.8011 174.337C98.8011 174.337 97.4619 174.029 95.589 173.434C91.6928 172.195 92.0192 167.296 92.0192 165.863C92.0192 162.771 93.117 157.672 96.1794 157.217C97.8764 156.966 99.7003 156.961 100.989 157.009C101.954 157.043 102.714 157.837 102.712 158.802C102.704 163.348 102.676 175.845 102.609 180.61C102.604 180.973 102.599 183.584 100.153 185.323C99.3439 185.898 98.1354 186.465 97.3866 186.465C94.7082 186.465 91.2469 186.263 88.2426 185.436C87.72 185.292 87.1886 185.628 87.0922 186.161Z" fill="#E3E3E3"/>
<path d="M115.465 153.466C116.02 154.809 116.558 156.041 116.837 156.671C116.952 156.933 117.224 157.083 117.507 157.046C119.016 156.844 123.696 156.276 125.414 156.7C126.741 157.027 128.853 159.094 128.937 160.457C129.129 163.587 129.072 167.299 129.022 169.205C129 170.057 128.609 170.86 127.937 171.385C126.6 172.43 124.15 173.957 121.576 173.608C119.838 173.373 118.377 168.319 122.423 167.265C122.613 167.216 123.31 166.855 124.053 166.454C125.375 165.74 126.237 164.397 126.33 162.899L126.381 162.066C126.381 162.066 115.58 162.051 113.255 168.6C111.729 172.896 114.428 178.052 118.127 178.826C121.972 179.631 126.824 179.131 128.807 175.673C128.977 175.376 129.413 175.403 129.549 175.717C130.586 178.121 132.839 178.799 136.44 178.594C136.791 178.574 136.99 178.225 136.876 177.893C135.107 172.732 135.651 168.052 135.651 163.115C135.651 155.967 133.398 153.151 130.04 151.575C127.125 150.207 119.842 150.036 115.954 152.121C115.47 152.38 115.255 152.959 115.465 153.466Z" fill="#E3E3E3"/>
<path d="M122.07 151.249L122.026 151.292Z" fill="white"/>
<path d="M72.7256 178.605L72.9218 152.127L75.6782 152.113C77.9993 152.103 79.8892 153.423 79.8892 155.055L80.0046 178.605" fill="white"/>
<path d="M19.136 178.605L19.226 152.098L22.2954 152.085C24.8796 152.074 26.9838 153.394 26.9838 155.026V178.605" fill="white"/>
<path d="M5.65039 179.16L5.625 141.503L8.69441 141.484C11.2786 141.469 13.3828 143.345 13.3828 145.664L13.4982 179.16" fill="white"/>
<path d="M60.8167 157.02C60.8167 157.02 61.2847 152.774 64.5111 152.196C65.5336 152.013 68.4082 152.11 68.4082 152.11L68.351 157.02" fill="white"/>
<path d="M36.9892 178.605L36.9071 160.546C36.9025 159.539 36.5798 158.555 35.9773 157.711C35.524 157.076 34.7365 156.704 33.9046 156.733L31.3698 156.822C30.8851 156.839 30.4211 156.643 30.1229 156.296L28.0682 153.905C27.9611 153.781 27.9938 153.601 28.1406 153.517C29.2836 152.86 33.9129 150.443 38.911 151.278C42.696 151.909 44.0592 154.522 44.6422 156.922C44.7309 157.289 44.8103 157.654 44.8112 158.029L44.855 178.605" fill="white"/>
<path d="M52.9119 178.652L52.9918 157.17H48.4631L48.4253 152.78L51.4388 152.162C52.2546 151.995 52.8427 151.282 52.8514 150.45L52.8796 147.752C52.8824 147.501 52.905 147.253 52.9502 147.006C53.2461 145.388 54.7395 140.05 61.6447 139.174C66.351 138.577 69.775 140.044 70.7601 140.534C70.929 140.618 71.0066 140.813 70.9461 140.992L69.8119 144.356C69.6702 144.777 69.6896 145.025 68.8655 145.148C68.8655 145.148 65.0921 145.14 62.784 146.054C61.4674 146.577 59.9131 147.564 60.1859 152.899L59.5802 178.652" fill="white"/>
<path d="M72.064 146.252C72.064 143.879 73.9894 141.955 76.365 141.955C78.7401 141.955 80.6661 143.879 80.6661 146.252C80.6661 148.626 78.7401 150.549 76.365 150.549C73.9894 150.549 72.064 148.626 72.064 146.252Z" fill="white"/>
</svg>
